PathFileType	4	(X/Y/Z)	E:\Qualisys_Data\Carbon_Farble_Plate\Data\Amateur_Runner\S2\T2\S2T2V23_c3d.trc
DataRate	CameraRate	NumFrames	NumMarkers	Units	OrigDataRate	OrigDataStartFrame	OrigNumFrames
200.000000	200.000000	4	39	mm	200.000000	76	306
Frame#	Time	LSHO			RSHO			LICST			RICST			LASIS			LHEEL			RASIS			LTROC			RTROC			SACR			LTH1			LSK4			LTH2			LTH3			RHM5			LSK2			LTH4			RTH1			LTOE			RTH2			RTH3			RTH4			LLEP			RLEP			LSK1			LSK3			RSK1			LHM5			RSK2			LFT1			RSK3			RSK4			LLME			RLME			RTOE			RHEEL			RFT1			RFT2			LFT2			
		X1	Y1	Z1	X2	Y2	Z2	X3	Y3	Z3	X4	Y4	Z4	X5	Y5	Z5	X6	Y6	Z6	X7	Y7	Z7	X8	Y8	Z8	X9	Y9	Z9	X10	Y10	Z10	X11	Y11	Z11	X12	Y12	Z12	X13	Y13	Z13	X14	Y14	Z14	X15	Y15	Z15	X16	Y16	Z16	X17	Y17	Z17	X18	Y18	Z18	X19	Y19	Z19	X20	Y20	Z20	X21	Y21	Z21	X22	Y22	Z22	X23	Y23	Z23	X24	Y24	Z24	X25	Y25	Z25	X26	Y26	Z26	X27	Y27	Z27	X28	Y28	Z28	X29	Y29	Z29	X30	Y30	Z30	X31	Y31	Z31	X32	Y32	Z32	X33	Y33	Z33	X34	Y34	Z34	X35	Y35	Z35	X36	Y36	Z36	X37	Y37	Z37	X38	Y38	Z38	X39	Y39	Z39	

77	0.38	-1671.797729492188	1529.52001953125	-437.7776489257812	-1566.265258789062	1506.73486328125	-162.5463256835938	-1646.831787109375	1058.57275390625	-441.4896850585938	-1603.230224609375	1037.3994140625	-146.8807678222656	-1588.459106445312	1008.877807617188	-426.7156677246094	-1498.27099609375	131.4700012207031	-328.1470642089844	-1555.296875	984.1573486328124	-174.9577789306641	-1708.408325195312	936.7962036132812	-446.76513671875	-1716.570190429688	962.0425415039062	-131.0363159179688	-1716.648803710938	1092.96923828125	-277.1314392089844	-1498.751953125	730.3628540039062	-459.7421569824219	-1515.680541992188	341.3992919921875	-427.9065856933594	-1576.416015625	699.4837646484375	-454.358642578125	-1461.279907226562	637.4793090820312	-433.509765625	-2268.567138671875	319.8133544921875	-187.6246643066406	-1521.998413085938	438.7172546386719	-443.4240112304688	-1539.475341796875	609.1044311523438	-428.91796875	-1709.382568359375	681.254638671875	-147.4378356933594	-1264.916137695312	202.8879547119141	-384.0813903808594	-1776.153686523438	717.7560424804688	-141.4850463867188	-1754.718017578125	593.311767578125	-158.6293640136719	-1825.733032226562	634.3633422851562	-161.5823059082031	-1490.129272460938	576.4666137695312	-427.7807922363281	-1826.385375976562	591.3847045898438	-157.6843719482422	-1445.434814453125	446.2071838378906	-435.2821044921875	-1437.156005859375	346.6828002929688	-423.8587951660156	-1921.190307617188	512.65966796875	-153.6020812988281	-1316.73681640625	158.5442504882812	-431.698486328125	-1951.373657226562	587.0573120117188	-153.3664855957031	-1475.188598632812	109.778450012207	-305.3919677734375	-2015.919677734375	474.34423828125	-163.3377380371094	-2042.005126953125	548.527099609375	-169.3878173828125	-1449.200317382812	162.9999084472656	-394.8831481933594	-2204.913330078125	434.5487976074219	-204.6239166259766	-2241.70556640625	246.0876007080078	-238.9729309082031	-2202.150634765625	493.107421875	-261.2869262695312	-2222.694091796875	476.3863220214844	-297.1907653808594	-2237.586181640625	494.3878173828125	-245.2914428710938	-1487.613403320312	97.1204071044922	-357.4183044433594
78	0.385	-1650.928588867188	1527.930419921875	-438.4887390136719	-1544.529174804688	1505.382568359375	-163.4057922363281	-1625.375610351562	1056.991943359375	-441.685302734375	-1581.498046875	1036.3671875	-146.7356872558594	-1567.17919921875	1007.452697753906	-427.3483581542969	-1469.390869140625	126.915168762207	-328.3240356445312	-1533.166625976562	983.1775512695312	-174.5983734130859	-1686.29248046875	934.9119262695312	-446.02001953125	-1693.141479492188	960.4775390625	-130.3048248291016	-1696.04833984375	1091.502075195312	-277.1582946777344	-1479.879638671875	723.8828125	-460.5004272460938	-1491.893188476562	337.1361999511719	-427.7638244628906	-1559.020629882812	694.9299926757812	-454.814208984375	-1444.426147460938	631.5947875976562	-433.9476318359375	-2253.929931640625	332.4359741210938	-188.9861450195312	-1500.092895507812	434.7555847167969	-442.5101928710938	-1523.316528320312	603.9785766601562	-428.2246704101562	-1685.276489257812	679.7796630859375	-146.5187377929688	-1237.743408203125	205.3126983642578	-382.0968017578125	-1752.436889648438	715.690673828125	-141.1405792236328	-1730.2001953125	590.3006591796875	-158.3518218994141	-1800.362182617188	631.2892456054688	-160.7514953613281	-1472.494506835938	571.548583984375	-426.8946228027344	-1800.44287109375	588.885009765625	-156.6659851074219	-1423.980224609375	443.4383850097656	-434.22509765625	-1413.720092773438	344.2164001464844	-422.4470520019531	-1898.2626953125	512.46484375	-153.6858062744141	-1288.077758789062	159.0283355712891	-430.3738098144531	-1923.424926757812	586.92041015625	-151.7901763916016	-1445.908935546875	105.6671600341797	-305.4956359863281	-1994.042114257812	477.5283203125	-163.8711395263672	-2016.715454101562	552.8755493164062	-169.4056854248047	-1420.897705078125	159.97705078125	-394.8456115722656	-2183.30029296875	446.4726257324219	-202.9638214111328	-2225.874267578125	257.3870849609375	-237.2238006591797	-2176.7939453125	500.6461486816406	-261.329345703125	-2199.574462890625	486.1522216796875	-298.5895080566406	-2214.0595703125	504.7757568359375	-246.4712982177734	-1458.23828125	93.00850677490234	-357.5987854003906
79	0.39	-1629.60888671875	1525.400756835938	-438.7768859863281	-1523.147094726562	1504.290161132812	-164.6716613769531	-1604.124389648438	1055.2607421875	-442.0060729980469	-1559.55126953125	1034.85791015625	-146.6244354248047	-1544.853393554688	1005.752197265625	-426.8782043457031	-1441.958984375	122.9727172851562	-328.1936645507812	-1511.869140625	982.0036010742188	-174.6577301025391	-1665.059692382812	932.6619873046876	-445.3687133789062	-1672.1181640625	957.790283203125	-130.6457366943359	-1674.079833984375	1089.216430664062	-277.0972595214844	-1462.881225585938	718.43701171875	-461.8159484863281	-1468.6259765625	333.2036437988281	-427.5892944335938	-1541.892578125	690.0972900390625	-456.0032958984375	-1427.764038085938	625.3412475585938	-434.6400146484375	-2234.71044921875	345.3429260253906	-189.4020385742188	-1479.2880859375	430.1919860839844	-441.2359313964844	-1507.110473632812	598.9570922851562	-427.7727661132812	-1659.93359375	677.0865478515625	-144.8345489501953	-1211.433471679688	206.3307647705078	-379.1688537597656	-1727.539794921875	712.941162109375	-140.6784362792969	-1704.357666015625	587.2684936523438	-157.6236572265625	-1775.048706054688	628.0830078125	-160.3544921875	-1454.485961914062	566.8760375976562	-426.8358764648438	-1774.839721679688	586.2704467773438	-156.1405944824219	-1402.723754882812	441.1959838867188	-432.5901489257812	-1390.557495117188	341.9396362304688	-421.7542114257812	-1873.613891601562	512.5247192382812	-152.6385650634766	-1260.55029296875	159.1533355712891	-428.3670959472656	-1897.341674804688	588.3934326171875	-152.4258575439453	-1418.284790039062	102.764289855957	-304.9841003417969	-1970.265258789062	481.0690612792969	-163.482666015625	-1991.142700195312	557.520751953125	-170.6345062255859	-1393.531005859375	157.4100494384766	-394.1409301757812	-2160.75732421875	456.5719299316406	-203.60595703125	-2208.717529296875	269.1370849609375	-235.8122406005859	-2154.037109375	512.6973876953125	-263.1795349121094	-2175.790283203125	495.8656311035156	-300.2843322753906	-2190.203125	515.9863891601562	-248.5624084472656	-1428.6044921875	89.32015228271484	-356.7698974609375
80	0.395	-1608.858276367188	1523.124877929688	-440.3251647949219	-1501.574096679688	1502.175903320312	-165.5066375732422	-1582.791748046875	1052.653198242188	-442.5194702148438	-1538.6064453125	1033.669799804688	-146.8171691894531	-1523.54052734375	1003.846435546875	-426.8575744628906	-1416.152221679688	119.0718536376953	-328.5077514648438	-1489.478271484375	980.716796875	-174.3611907958984	-1643.620849609375	930.5653076171876	-445.0614013671875	-1650.326782226562	955.2943725585938	-130.9006042480469	-1653.172729492188	1087.5849609375	-277.8484497070312	-1444.836791992188	712.8674926757812	-462.4211120605469	-1445.646728515625	329.4164733886719	-425.8524780273438	-1524.073486328125	684.7055053710938	-456.8923950195312	-1411.110229492188	619.5344848632812	-435.03857421875	-2215.028564453125	357.8986206054688	-188.8371124267578	-1458.169311523438	426.67529296875	-439.8635559082031	-1490.873657226562	594.09619140625	-427.0678100585938	-1635.253295898438	675.0679931640625	-144.2132873535156	-1186.873901367188	207.13330078125	-376.6156311035156	-1703.984619140625	709.5708618164062	-140.6524200439453	-1678.098266601562	584.363037109375	-157.2184448242188	-1749.749389648438	624.1320190429688	-159.9627990722656	-1436.026123046875	562.8148803710938	-426.1442260742188	-1749.608154296875	582.313232421875	-156.2500305175781	-1382.533203125	438.3845825195312	-431.4096069335938	-1368.200439453125	339.7695007324219	-420.5222778320312	-1849.531127929688	512.315673828125	-152.5420532226562	-1235.104370117188	159.1008758544922	-426.7176208496094	-1869.814575195312	588.8346557617188	-152.6695251464844	-1392.703979492188	99.05239868164062	-305.476318359375	-1946.667724609375	484.057861328125	-163.5748443603516	-1964.966796875	561.1817626953125	-171.0936584472656	-1367.477661132812	154.9162902832031	-393.5685119628906	-2138.3681640625	467.3389587402344	-204.7109680175781	-2190.417236328125	280.2359619140625	-234.3105010986328	-2129.08740234375	521.9259033203125	-264.9725036621094	-2150.89892578125	505.1472778320312	-301.8213806152344	-2164.914794921875	525.847412109375	-250.5987701416016	-1401.745849609375	86.5782699584961	-357.4329833984375
